<?xml version="1.0" encoding="UTF-8"?>
<svg width="127px" height="28px" viewBox="0 0 127 28" version="1.1" xmlns="http://www.w3.org/2000/svg" xmlns:xlink="http://www.w3.org/1999/xlink">
    <title>Group</title>
    <g id="Demo" stroke="none" stroke-width="1" fill="none" fill-rule="evenodd">
        <g id="Industries---detail" transform="translate(-64.000000, -68.000000)">
            <g id="Group-4" transform="translate(64.000000, 68.000000)">
                <g id="Group" transform="translate(0.000000, 0.000000)">
                    <path d="M15.3419566,16.6832171 C15.6817884,8.87096942 7.68661408,0.00077675841 7.68661408,0.00077675841 L7.68777922,1.10384009e-14 C7.68777922,1.10384009e-14 -0.31982323,8.85543425 0.00991071542,16.6692355 C0.340809798,24.4830367 7.67069053,27.5143364 7.67069053,27.5143364 C7.67069053,27.5143364 14.9990177,24.4974067 15.3419566,16.6832171" id="Fill-3" fill="#84B753"></path>
                    <path d="M26.3528954,10.1258226 C26.3435743,10.6171223 26.3280392,11.1270642 26.2996875,11.6529297 C26.2938618,11.7430336 26.2907548,11.8300306 26.2810453,11.9170275 C26.2752196,12.0413089 26.2655101,12.1690856 26.256189,12.293367 C26.0072379,15.8602416 25.2269841,19.9401651 23.1744,22.5990092 C23.1588648,22.6238654 23.140611,22.6456147 23.1219688,22.6704709 C22.558819,23.3765443 20.8048985,25.854792 17.1696691,27.0521651 C16.877608,27.1484832 16.5696233,27.2354801 16.2523174,27.313156 C16.2305682,27.3197584 16.208819,27.3259725 16.1835743,27.3321865 C15.8666569,27.4067554 15.5369229,27.4720031 15.1951492,27.5279297 C14.0195254,27.7147401 12.697871,27.7671713 11.2084367,27.6211407 C11.2084367,27.6211407 11.2115437,27.6211407 11.2142624,27.6180336 C11.2612563,27.5931774 11.6682777,27.3632569 12.2593908,26.9340979 C12.2593908,26.9309908 12.2624979,26.9309908 12.2624979,26.9309908 C13.4501615,26.0633517 15.3784642,24.3715719 16.6535132,21.821474 C17.1323847,20.8668379 17.5180453,19.7879205 17.735926,18.5874404 C17.8815682,17.7974771 17.9534184,16.9515872 17.9285621,16.0528777 C17.9099199,15.231844 17.8136018,14.3645933 17.6174703,13.4530673 C17.4745468,12.7691315 17.2753083,12.056844 17.0143174,11.3200887 C16.7560453,10.582945 16.4391278,9.82094495 16.0503603,9.03137003 C16.0503603,9.03137003 16.0530789,9.03137003 16.0561859,9.028263 C16.0627884,9.02515596 16.0717211,9.02204893 16.0845376,9.01272783 C20.5998343,6.31621101 25.6375009,5.07572783 26.1225866,4.96348624 C26.1350147,4.96076758 26.1474428,4.95727217 26.159871,4.95455352 C26.159871,4.95455352 26.1664734,4.99766361 26.1722991,5.0819419 C26.1754061,5.1192263 26.1820086,5.1658318 26.1878343,5.21865138 C26.1909413,5.25593578 26.1940483,5.29632722 26.2002624,5.3433211 C26.1975437,5.34603976 26.1975437,5.34914679 26.2002624,5.35536086 C26.2406538,5.84044648 26.309397,6.73915596 26.3435743,7.89924465 C26.3618281,8.56453823 26.3680422,9.31721713 26.3528954,10.1258226" id="Fill-5" fill="#407933"></path>
                    <path d="M40.3407609,18.2864465 L37.4310239,9.61743425 L34.5546875,18.2864465 L40.3407609,18.2864465 Z M41.7292165,22.3364648 L33.1984673,22.3364648 L31.3800759,27.8588287 L26.4864979,27.8588287 L34.9842349,4.7980367 L39.9438373,4.7980367 L48.4085621,27.8588287 L43.5810086,27.8588287 L41.7292165,22.3364648 Z" id="Fill-7" fill="#343434"></path>
                    <path d="M48.252822,16.3449388 C48.252822,9.90910703 53.3099077,4.72074924 59.8113755,4.72074924 C63.2263939,4.72074924 66.2145835,6.13289602 68.1844428,8.33306422 L64.8680728,11.1895933 C63.5875866,9.81045872 61.7812349,8.95680122 59.8113755,8.95680122 C55.8708801,8.95680122 52.8174428,12.3061835 52.8174428,16.3449388 C52.8174428,20.3836942 55.8708801,23.8643486 59.8113755,23.8643486 C62.7665529,23.8643486 65.0976049,22.4525902 65.6891064,20.088526 C65.7543541,19.9242416 65.7873664,19.726945 65.8203786,19.5300367 L59.4171707,19.5300367 L59.4171707,15.8194618 L70.8114398,15.8194618 C70.8114398,24.1929174 66.3128434,27.9361162 59.8113755,27.9361162 C53.3099077,27.9361162 48.252822,22.7481468 48.252822,16.3449388" id="Fill-9" fill="#343434"></path>
                    <path d="M78.450082,15.8431529 L82.1206538,15.8431529 C84.6998801,15.8431529 85.7908373,14.2702171 85.7908373,12.4292997 C85.7908373,10.5883823 84.6334673,8.91485627 82.4845651,8.91485627 L78.450082,8.91485627 L78.450082,15.8431529 Z M80.0043755,19.591789 L78.450082,19.591789 L78.450082,27.8588287 L73.8543908,27.8588287 L73.8543908,4.7980367 L82.9471248,4.7980367 C88.1716018,4.7980367 90.4199291,8.54667278 90.4199291,12.3287095 C90.4199291,15.6089602 88.7339749,18.5544281 84.8983419,19.3575963 L90.8168526,27.8588287 L85.4273144,27.8588287 L80.0043755,19.591789 Z" id="Fill-11" fill="#343434"></path>
                    <polygon id="Fill-13" fill="#343434" points="93.4547242 27.694156 98.0511921 27.694156 98.0511921 4.63297554 93.4547242 4.63297554"></polygon>
                    <polygon id="Fill-15" fill="#343434" points="119.099403 4.63297554 112.188583 27.694156 108.055452 27.694156 101.145021 4.63297554 105.906161 4.63297554 110.105706 20.1968838 114.304862 4.63297554"></polygon>
                    <polygon id="Fill-16" fill="#343434" points="122.059629 27.694156 126.655321 27.694156 126.655321 4.63297554 122.059629 4.63297554"></polygon>
                </g>
            </g>
        </g>
    </g>
</svg>